PathFileType	4	(X/Y/Z)	/Users/niels/Desktop/University/Third Semester/Perception and Action/Exam/Gymnastics Motion Tracking/Code for Gym Tracking/Analyzed Data/Webcam_Backflip/id2_1_baseline_Sports2D/id2_1_baseline_Sports2D_px_person00.trc
DataRate	CameraRate	NumFrames	NumMarkers	Units	OrigDataRate	OrigDataStartFrame	OrigNumFrames
29.872881355932204	29.872881355932204	9	22	m	29.872881355932204	206	236
Frame#	Time	Hip			RHip			RKnee			RAnkle			RBigToe			RSmallToe			RHeel			LHip			LKnee			LAnkle			LBigToe			LSmallToe			LHeel			Neck			Head			Nose			RShoulder			RElbow			RWrist			LShoulder			LElbow			LWrist		
		X1	Y1	Z1	X2	Y2	Z2	X3	Y3	Z3	X4	Y4	Z4	X5	Y5	Z5	X6	Y6	Z6	X7	Y7	Z7	X8	Y8	Z8	X9	Y9	Z9	X10	Y10	Z10	X11	Y11	Z11	X12	Y12	Z12	X13	Y13	Z13	X14	Y14	Z14	X15	Y15	Z15	X16	Y16	Z16	X17	Y17	Z17	X18	Y18	Z18	X19	Y19	Z19	X20	Y20	Z20	X21	Y21	Z21	X22	Y22	Z22
206	6.895886524822694	0.880974050192956	-0.5969040183678614	0.0	0.8772975094273908	-0.5950463643071978	0.0	0.8683869065919317	-0.704484601025405	0.0	0.8497657624654927	-0.8185296798615613	0.0	0.8875599264843118	-0.8391882893363636	0.0	0.8732586349357943	-0.841930240484437	0.0	0.842344226364824	-0.8354852438478867	0.0	0.8864854226088374	-0.5953709636649783	0.0	0.8763762509428045	-0.7051122630395286	0.0	0.858670648224419	-0.8099889245870587	0.0	0.9017564677300243	-0.8289414468274326	0.0	0.8965998520147669	-0.8258936048074984	0.0	0.8497894374426944	-0.8265272155316616	0.0	0.8791353696138026	-0.4319186191121049	0.0	0.8947055459686246	-0.3603120640908043	0.0	0.9121931350052761	-0.39764061083634866	0.0	0.8666485546291827	-0.45380836304418587	0.0	0.8604788718851833	-0.5330295646748894	0.0	0.8797021061754683	-0.6050329241735687	0.0	0.8780074115597377	-0.45457695894700245	0.0	0.8751696143033572	-0.5278333749123484	0.0	0.8925610793816939	-0.5954571623192847	0.0
207	6.929361702127658	0.88264269946189	-0.5952719777310412	0.0	0.8787192062640307	-0.593782397428729	0.0	0.8686376462723192	-0.7030131079855088	0.0	0.849825596154976	-0.8167236163709722	0.0	0.8871794096671852	-0.8376026684005857	0.0	0.8728473061127977	-0.8401274407719911	0.0	0.842409233558185	-0.8338386003741327	0.0	0.8880324397543244	-0.594090437530328	0.0	0.8768995725732954	-0.7037277329143397	0.0	0.8587100978213504	-0.8084752503353204	0.0	0.9012547718448456	-0.8279519287577525	0.0	0.8961842827221966	-0.8248361902711256	0.0	0.8496277970208403	-0.8252885443473577	0.0	0.8794646755747136	-0.4298744267808146	0.0	0.8947784110227728	-0.3582463306792282	0.0	0.9124156090919163	-0.39562431018149297	0.0	0.8669894821494132	-0.4517293277528709	0.0	0.8583340635039161	-0.530421039870826	0.0	0.8745716850559558	-0.6033129469603168	0.0	0.8787844539982931	-0.4525347959039998	0.0	0.8741757343624306	-0.525748556773822	0.0	0.8902153218112239	-0.5938021088032058	0.0
208	6.962836879432623	0.884040965169838	-0.5935007103062027	0.0	0.8799788651876651	-0.5923648845285773	0.0	0.8690679597839035	-0.7015343000203618	0.0	0.8499479014498813	-0.8151497788161548	0.0	0.8870534011950174	-0.836179480411065	0.0	0.8726547481072696	-0.8385378708951192	0.0	0.8424985076513775	-0.8324049547921684	0.0	0.8893632784974873	-0.5926754774837327	0.0	0.8774957034846741	-0.7022750263340876	0.0	0.8588721845728078	-0.8071319893572005	0.0	0.9010451760537972	-0.8269397023329266	0.0	0.8961906564628236	-0.8237749547377903	0.0	0.8497450623877078	-0.8241886882541098	0.0	0.8796507995565498	-0.42782692069723405	0.0	0.8948605012705239	-0.3561986065369561	0.0	0.9125826919383375	-0.3936940234507632	0.0	0.8672355865086642	-0.44966702058512764	0.0	0.856316814397954	-0.5276956054198099	0.0	0.8703151948692408	-0.6011718553951638	0.0	0.8793368644285242	-0.45042433537670673	0.0	0.872973817011748	-0.523529907328635	0.0	0.8879922140941896	-0.5917859094481016	0.0
209	6.996312056737588	0.8850322439117313	-0.5918956886178157	0.0	0.8809308899600544	-0.591050612778038	0.0	0.8696909467741056	-0.7002318169266647	0.0	0.8501532630555203	-0.8139585767320036	0.0	0.8871204932253342	-0.8350657802074049	0.0	0.8726665598026766	-0.8373194269154169	0.0	0.8426145939141877	-0.8313628084269559	0.0	0.890359357736682	-0.5913636128654869	0.0	0.8781803485104953	-0.7008973634887402	0.0	0.8591740440593454	-0.8060728339705475	0.0	0.9011078734840385	-0.8260274840716169	0.0	0.8965060364317049	-0.8228094344181328	0.0	0.8501418246399096	-0.8233096654728397	0.0	0.8796894281786827	-0.42596074471929574	0.0	0.8950360899864966	-0.35438776250765586	0.0	0.9126713145080553	-0.39203031445968667	0.0	0.8673988908843643	-0.4477485006930597	0.0	0.8546104984097742	-0.5251179041893529	0.0	0.8670613905367917	-0.5989654709543124	0.0	0.879618313375277	-0.44843102743448443	0.0	0.871614876034643	-0.521385901254432	0.0	0.8859363367608537	-0.5896636481163017	0.0
210	7.029787234042552	0.8855447474057108	-0.5906088655286024	0.0	0.8814783950685928	-0.5899937573369511	0.0	0.8704497413129724	-0.6992070874242384	0.0	0.8503965899306168	-0.8131664669756437	0.0	0.8872302179291035	-0.8342939702262536	0.0	0.87276727335721	-0.8365074965224195	0.0	0.8427380088337976	-0.8307452507737547	0.0	0.8909522251271604	-0.5903042653965774	0.0	0.8789723776154691	-0.699706614123036	0.0	0.8596077777008339	-0.8053047308164306	0.0	0.9013398303946496	-0.8253205739367883	0.0	0.8969437054958482	-0.8220289088373959	0.0	0.8507543347117655	-0.8226566547532511	0.0	0.8796162400965917	-0.4244235766229813	0.0	0.8953100115567361	-0.35295945534885803	0.0	0.9126736574106329	-0.3907414673571062	0.0	0.8675098371575378	-0.4460749280897127	0.0	0.8533591927900797	-0.5229306475737477	0.0	0.8648157269910985	-0.5970272084475641	0.0	0.8796716023970436	-0.4467550893137479	0.0	0.8702983618853262	-0.5195038438717363	0.0	0.8841647887404991	-0.5876906430041136	0.0
211	7.063262411347517	0.8855773480147586	-0.5896033656346661	0.0	0.8815671462989957	-0.589175568459067	0.0	0.8712566898142955	-0.698453993529471	0.0	0.8506105987265057	-0.8126994402508175	0.0	0.8872518463722873	-0.8338109894101682	0.0	0.8728090111564953	-0.8360644164435194	0.0	0.8428430163263568	-0.8304705663069795	0.0	0.8911153344054521	-0.5895230654304109	0.0	0.8798363426265539	-0.6987705020479931	0.0	0.8601366123015788	-0.8047592717273068	0.0	0.9015862761876283	-0.8248515354298074	0.0	0.8973366016130361	-0.8214651896605966	0.0	0.8514829913186047	-0.8221726482735848	0.0	0.8794942304074441	-0.42329780652832494	0.0	0.8956043203511626	-0.35195572388962587	0.0	0.9126078917900147	-0.3898428837404174	0.0	0.8675897139764064	-0.4447255076191675	0.0	0.8526390771465135	-0.5212873542013536	0.0	0.8635559420098257	-0.5955219302917493	0.0	0.8795896509889426	-0.44553403447993717	0.0	0.8692398319271819	-0.5180112880072711	0.0	0.8828263428034785	-0.5860291938342128	0.0
212	7.0967375886524815	0.8851724464197903	-0.588768472299772	0.0	0.8811715410299115	-0.5884766369756173	0.0	0.872005887204602	-0.6979366277128751	0.0	0.8507582871439234	-0.8125032119767426	0.0	0.8871490055875222	-0.8335639328211902	0.0	0.8727133031734916	-0.8359551680101471	0.0	0.8429100833774024	-0.8304526152632082	0.0	0.8908466076015323	-0.5889560089003887	0.0	0.8806390250411472	-0.6981268472082797	0.0	0.8606832894595801	-0.8043923036199124	0.0	0.9017239076242051	-0.8245881458434278	0.0	0.8975817431417481	-0.8211112791126557	0.0	0.8521999716493271	-0.8218296349751795	0.0	0.8793765107933275	-0.42259077044902155	0.0	0.8958226367680808	-0.3513403325295183	0.0	0.9124961944125881	-0.3892882744473871	0.0	0.8676276402503853	-0.44377103091490216	0.0	0.852453081676394	-0.520234173009417	0.0	0.8632815612146466	-0.5944553640564398	0.0	0.879453351896458	-0.44480011346013626	0.0	0.8685737818954075	-0.5169727740216546	0.0	0.8820662988934249	-0.5847398401422146	0.0
213	7.130212765957446	0.8843566969591291	-0.5880713215721238	0.0	0.8802995761350926	-0.5878133746527654	0.0	0.8725587616753111	-0.6976614868249653	0.0	0.8508397746144611	-0.8125748497869375	0.0	0.8869823674654642	-0.8335424142478695	0.0	0.8725205346005218	-0.8361471166260138	0.0	0.8429302108001661	-0.8306601518974757	0.0	0.8901617868309357	-0.5885225766541231	0.0	0.8811828373196872	-0.6978123679157446	0.0	0.8611407893444635	-0.8042255182046072	0.0	0.9017063525506503	-0.8244681358090886	0.0	0.8976565885004298	-0.8209519441588413	0.0	0.8527604667489722	-0.8216644782685489	0.0	0.8792887982736226	-0.42226502476288685	0.0	0.8958998622763956	-0.3510537394975228	0.0	0.9123525484277817	-0.3890212598070544	0.0	0.8675806734518874	-0.4432766318743532	0.0	0.8527439954867706	-0.5197610900203127	0.0	0.8640054320271006	-0.5937844686221996	0.0	0.8793045452286121	-0.4445163154725998	0.0	0.8683693031796995	-0.516428855616381	0.0	0.8820087328088801	-0.583858912770736	0.0
214	7.163687943262411	0.883140818501932	-0.5875805487967485	0.0	0.8789921196235652	-0.587194369122347	0.0	0.8727625593948701	-0.6976354005782414	0.0	0.8508630457692189	-0.81289406117455	0.0	0.886818391199521	-0.8337390935904673	0.0	0.8723150833056134	-0.836565897373883	0.0	0.8428898921946909	-0.831055779612307	0.0	0.889089063368096	-0.588158691916794	0.0	0.8813080678986387	-0.6978228999469558	0.0	0.8614051716985648	-0.8042874248443918	0.0	0.9015285052574807	-0.824418548945533	0.0	0.8975793438545253	-0.8209422247760365	0.0	0.8530602262779184	-0.8217161023780202	0.0	0.8792302990371729	-0.42229274760595353	0.0	0.8958056356382297	-0.351063335333647	0.0	0.91218699060177	-0.389018484690006	0.0	0.8673869027917642	-0.44328841261883534	0.0	0.8534120908658922	-0.5198553068510215	0.0	0.8657297649986043	-0.5934835434575594	0.0	0.8791487572770706	-0.4446377337205589	0.0	0.8686531860022204	-0.51642466103018	0.0	0.8827230781312543	-0.5834612011927324	0.0
